<?xml version="1.0" standalone="no"?>
<!DOCTYPE svg PUBLIC "-//W3C//DTD SVG 20010904//EN"
 "http://www.w3.org/TR/2001/REC-SVG-20010904/DTD/svg10.dtd">
<svg version="1.0" xmlns="http://www.w3.org/2000/svg"
 width="300.000000pt" height="300.000000pt" viewBox="0 0 300.000000 300.000000"
 preserveAspectRatio="xMidYMid meet">
<metadata>
Created by potrace 1.10, written by Peter Selinger 2001-2011
</metadata>
<g transform="translate(0.000000,300.000000) scale(0.100000,-0.100000)"
fill="#000000" stroke="none">
<path d="M252 1947 c-22 -23 -22 -30 -22 -303 0 -237 2 -283 16 -302 15 -22
17 -22 308 -22 221 0 296 3 310 13 16 11 17 38 16 307 0 257 -3 296 -17 312
-15 17 -39 18 -303 18 l-287 0 -21 -23z m589 -24 c11 -13 14 -70 14 -267 1
-278 0 -292 -23 -301 -9 -3 -133 -6 -274 -6 -191 0 -262 3 -278 13 -19 12 -20
22 -20 277 0 232 2 267 17 283 15 17 37 18 283 18 237 0 269 -2 281 -17z"/>
<path d="M411 1866 c-9 -10 -11 -26 -6 -43 4 -16 9 -61 11 -102 3 -63 0 -78
-18 -103 -73 -103 11 -224 153 -222 98 2 189 63 189 126 0 52 -38 61 -90 23
-43 -32 -100 -34 -118 -4 -15 24 -1 49 28 49 27 0 70 39 70 64 0 15 12 31 37
47 65 42 67 116 6 156 -21 14 -38 15 -168 12 -16 -1 -42 2 -56 6 -17 4 -29 2
-38 -9z m92 -38 c19 16 90 26 131 18 66 -13 80 -97 20 -125 -35 -16 -86 -14
-112 5 -18 12 -22 13 -22 1 0 -8 -12 -27 -26 -42 l-25 -28 -16 23 c-11 15 -14
36 -10 68 3 31 0 53 -10 69 -8 12 -12 30 -9 40 6 14 11 12 36 -12 22 -21 32
-25 43 -17z m31 -143 c3 -9 11 -15 18 -14 30 4 49 -2 55 -17 8 -21 -14 -34
-60 -34 -31 0 -39 -4 -47 -26 -25 -64 6 -104 80 -104 39 0 53 6 87 35 23 19
44 35 47 35 3 0 6 -12 6 -26 0 -62 -108 -122 -198 -110 -85 12 -122 48 -122
123 0 30 9 45 58 93 64 64 67 66 76 45z"/>
<path d="M545 1781 c-8 -14 31 -33 58 -29 12 2 23 11 25 21 3 14 -4 17 -37 17
-22 0 -42 -4 -46 -9z"/>
<path d="M1300 1750 c0 -6 4 -10 9 -10 8 0 -20 -124 -31 -135 -6 -6 -44 125
-40 138 1 4 -16 7 -39 7 -34 0 -38 -2 -27 -14 8 -7 27 -57 43 -110 17 -52 35
-96 42 -96 10 0 33 64 69 193 3 9 10 17 16 17 18 0 0 14 -22 17 -11 2 -20 -2
-20 -7z"/>
<path d="M1697 1712 c7 -70 10 -73 14 -15 3 33 0 54 -7 57 -8 3 -10 -10 -7
-42z"/>
<path d="M2374 1748 c-3 -4 -1 -8 5 -8 9 0 -18 -72 -32 -87 -4 -3 -17 17 -29
45 -21 47 -26 52 -57 52 -32 0 -33 -1 -19 -17 40 -47 60 -100 57 -149 l-4 -49
37 0 c24 0 34 3 28 9 -19 19 -10 86 17 139 15 28 31 54 35 55 4 2 8 7 8 11 0
9 -40 9 -46 -1z"/>
<path d="M998 1649 c2 -58 -1 -105 -6 -108 -6 -3 26 -7 69 -9 l79 -2 -1 37 c0
21 -3 31 -6 23 -11 -28 -36 -50 -60 -50 -23 0 -23 2 -23 105 l0 105 -27 0 -28
0 3 -101z"/>
<path d="M1080 1741 c14 -4 29 -17 35 -29 11 -25 30 -31 21 -6 -3 9 -6 22 -6
30 0 10 -11 14 -37 13 -32 -1 -34 -2 -13 -8z"/>
<path d="M1378 1649 c2 -63 -1 -104 -7 -108 -6 -4 27 -7 72 -6 l82 0 3 33 c2
18 -1 32 -7 32 -6 0 -11 -9 -11 -20 0 -23 -40 -46 -64 -37 -13 5 -16 24 -16
102 l0 95 30 0 c24 0 33 -6 41 -26 12 -33 24 -24 15 11 -6 24 -10 25 -74 25
l-67 0 3 -101z"/>
<path d="M1550 1745 c0 -3 15 -24 33 -48 17 -23 50 -70 72 -105 22 -34 43 -62
48 -62 11 0 8 88 -3 95 -6 3 -28 33 -50 66 -34 50 -45 59 -70 59 -17 0 -30 -2
-30 -5z"/>
<path d="M1741 1718 c0 -29 1 -30 9 -11 5 12 17 26 27 32 16 9 15 10 -9 11
-25 0 -28 -3 -27 -32z"/>
<path d="M1798 1642 l-3 -107 37 0 c28 0 34 3 27 12 -6 7 -9 53 -7 107 l3 96
-27 0 -27 0 -3 -108z"/>
<path d="M1882 1738 c8 -7 20 -22 26 -33 9 -16 11 -17 12 -3 0 30 -12 48 -33
48 -18 0 -19 -1 -5 -12z"/>
<path d="M1950 1731 c12 -23 13 -112 1 -161 l-8 -35 38 0 c25 0 35 3 29 9 -15
15 -13 193 3 199 6 3 -7 6 -31 6 -39 1 -42 -1 -32 -18z"/>
<path d="M2055 1642 l0 -107 37 0 c31 0 35 2 27 16 -5 9 -8 55 -6 100 2 83 2
84 29 87 21 3 30 -3 42 -25 l15 -28 1 33 0 32 -72 0 -73 0 0 -108z"/>
<path d="M2458 1654 c2 -61 -1 -100 -8 -109 -9 -11 -5 -13 24 -12 l36 2 0 108
0 107 -27 0 -28 0 3 -96z"/>
<path d="M2538 1740 c27 -11 30 -55 5 -82 -9 -11 -11 -18 -5 -18 7 0 12 -13
12 -29 0 -49 17 -81 43 -81 24 0 47 17 47 35 0 5 -4 4 -9 -4 -14 -22 -31 -3
-31 34 0 26 -5 35 -22 41 l-23 7 23 10 c54 24 29 98 -32 96 -29 0 -29 -1 -8
-9z"/>
<path d="M1087 1670 c-6 -23 2 -60 13 -60 8 0 6 68 -2 76 -3 3 -8 -4 -11 -16z"/>
<path d="M1472 1673 c-10 -19 -10 -27 0 -45 l13 -23 3 23 c2 12 2 32 0 45 l-3
22 -13 -22z"/>
<path d="M2160 1676 c0 -8 -5 -16 -12 -18 -8 -3 -7 -11 5 -28 l17 -24 0 42 c0
23 -2 42 -5 42 -3 0 -5 -6 -5 -14z"/>
<path d="M1558 1606 c-2 -63 0 -76 12 -76 13 0 15 11 9 70 -3 39 -9 73 -12 76
-3 3 -7 -28 -9 -70z"/>
</g>
</svg>
